# xmcd CD database file
#
# Track frame offsets:
#	150
#	22345
#	42114
#	60709
#	84773
#	109357
#	135686
#	154972
#	179555
#	213538
#	228176
#	252941
#	269632
#
# Disc length: 3892 seconds
#
# Revision: 0
# Processed by: cddbd v1.4PL0 Copyright (c) Steve Scherf et al.
# Submitted via: CDex 1.50
#
DISCID=bd0f320d
DTITLE=Keith Doder and the Blue City Band - Blue to Bright
DYEAR=2003
DGENRE=Blues
TTITLE0=Scufflin' in St. Louis
TTITLE1=Mystery Woman
TTITLE2=Little Girl
TTITLE3=Faking Lucky
TTITLE4=Sunshine Baby
TTITLE5=Damn the Dealer
TTITLE6=Metro-Link Roar
TTITLE7=River's Invitation
TTITLE8=A Minor Thing
TTITLE9=Blues Is My Religion
TTITLE10=Chicken Heads
TTITLE11=Blue To Bright
TTITLE12=Big Changes
EXTD=YEAR: 2003
EXTT0=
EXTT1=
EXTT2=
EXTT3=
EXTT4=
EXTT5=
EXTT6=
EXTT7=
EXTT8=
EXTT9=
EXTT10=
EXTT11=
EXTT12=
PLAYORDER=
